<?xml version="1.0" encoding="iso-8859-1"?>
<!-- Generator: Adobe Illustrator 21.1.0, SVG Export Plug-In . SVG Version: 6.00 Build 0)  -->
<svg version="1.1" id="Layer_1" xmlns="http://www.w3.org/2000/svg" xmlns:xlink="http://www.w3.org/1999/xlink" x="0px" y="0px"
	 viewBox="0 0 115 65" style="enable-background:new 0 0 115 65;" xml:space="preserve">
	<path style="fill:#DD0023;" d="M85.271,39.158c4.152-5.094,19.552-23.993,19.953-24.578l0.019-0.028l0.016-0.03
		c2.991-4.041,0.351-7.029-3.891-7.029H89.646v-6.96h11.825c2.273,0,4.48,0.087,6.492,1.143c1.918,1.007,3.424,2.4,4.478,4.141
		c1.053,1.743,1.586,3.689,1.586,5.785c0,2.219-0.579,4.378-1.72,6.419c-0.588,1.05-3.963,5.427-9.503,12.325l-0.817,1.018h12.502
		v7.874L85.271,39.158z"/>
<path style="fill:#DD0023;" d="M71.021,13.903v7.922h-6.357L71.021,13.903z M71.71,0.535L48.074,29.61h22.947v16.602l8.208-9.845
	V29.61h5.803l6.203-7.785H79.228V0.535H71.71z"/>
<path style="fill:#FFFFFF;" d="M43.869,37.08v-0.013h-1.614l-6.543,8.211h16.826c-4.228,6.604-11.623,10.994-20.03,10.994
	c-13.108,0-23.772-10.664-23.772-23.772c0-13.108,10.664-23.772,23.772-23.772c7.057,0,13.402,3.094,17.759,7.993l5.18-6.501
	C49.63,4.232,41.499,0.5,32.509,0.5c-17.645,0-32,14.355-32,32s14.355,32,32,32c13.104,0,24.387-7.92,29.33-19.222
	c1.127-2.575,1.923-5.325,2.337-8.198H43.869z"/>
</svg>
