<?xml version="1.0" encoding="utf-8"?>
<!-- Generator: Adobe Illustrator 24.0.1, SVG Export Plug-In . SVG Version: 6.00 Build 0)  -->
<svg version="1.1" id="Sport" xmlns="http://www.w3.org/2000/svg" xmlns:xlink="http://www.w3.org/1999/xlink" x="0px" y="0px"
	 viewBox="0 0 1462.26 479.52" style="enable-background:new 0 0 1462.26 479.52;" xml:space="preserve">
<style type="text/css">
	.st0{fill:#66B1FF;}
</style>
<g id="_x30_1Cycling">
	<g>
		<g>
			<path class="st0" d="M115.76,131.06c59.45-26.52,132.85-24.65,189.68,7.44c10.45,5.9,21.55,13.39,27.61,24.11
				c5.25,9.28,5.02,19.53,2.43,29.62c-4.68,18.27-14.44,34.97-21.24,52.48c-6.36,16.37-10.33,33.55-9.64,51.21
				c0.7,18.06,6.46,35.73,12.11,52.75c5.42,16.31,11.46,33.32,20.55,48.01c-5.7-15.23-9.22-31.45-12.57-47.33
				c-4.16-19.69-9.04-40.1-6.86-60.33c1.99-18.5,9.29-35.18,17.33-51.73c8.63-17.75,19.28-36.46,19.92-56.68
				c0.72-22.8-13.85-40.31-32.25-52.05c-25.81-16.48-57.07-25.7-87.45-27.83C194.92,97.89,149.36,107.43,115.76,131.06z"/>
			<path class="st0" d="M283.88,293.62c-14.66-11.29-30.06-21.6-44.95-32.58c-14.39-10.61-31.31-21.56-42-36.14
				c0,0.01-0.07-0.09,0,0c-5.12-7.33-7.77-13.31-0.63-20.18c-0.32,0.27-0.05,0.04-0.1,0.08c4.41-4,10.26-6.5,15.57-9
				c10.12-4.77,20.53-8.92,30.89-13.11c16.01-6.48,32.18-12.7,47.91-19.84c-18.23,1.38-36.47,4.97-54.21,9.29
				c-16.82,4.1-37.32,8.38-51.1,19.47c-35.06,28.18,16.38,63.08,38.43,75.81C242.63,278.36,262.91,287.39,283.88,293.62z"/>
			<path class="st0" d="M110.57,143.15c-8.81-6.46-17.77-12.77-26.18-19.75c-0.66-0.55-19.42-16.31-16.9-19.58
				c-0.03-0.08,0.03-0.04,0.03-0.03c0.01,0.09,0.01,0.18,0,0.28c0.47-0.08,1.12-1.35,1.43-1.78c-0.47,0.64-0.11,0.15-0.2,0.28
				c4.01-4.22,9.89-7.18,14.96-9.92c9.37-5.07,19.27-9.21,29.42-12.44c18.26-5.82,36.66-7.76,55.69-8.62
				c-17.99-6.49-37.76-7.09-56.43-3.37C94.7,71.72,72.42,79.3,59.96,93.07C38.48,116.79,95.19,139.28,110.57,143.15z"/>
		</g>
		<path class="st0" d="M407.87,252.07c-46.95,20.45-68.43,75.09-47.98,122.03c20.45,46.95,75.09,68.43,122.03,47.98
			c35.73-15.56,56.7-50.92,55.67-87.62c4.38,41.68-18.3,83.16-58.76,100.79c-49.97,21.77-108.13-1.1-129.9-51.07
			c-21.77-49.97,1.1-108.13,51.07-129.9c5.67-2.47,11.45-4.36,17.26-5.71C414.11,249.56,410.97,250.72,407.87,252.07z"/>
		<path class="st0" d="M32.35,371.14c-14.11-52.65,17.14-106.77,69.79-120.88c2.64-0.71,5.29-1.3,7.93-1.78
			c-0.53,0.13-1.07,0.26-1.6,0.41c-49.46,13.25-78.82,64.09-65.56,113.56c13.25,49.46,64.09,78.82,113.56,65.56
			c45.95-12.31,74.54-57.06,67.74-103.01c10.94,51.05-19.98,102.26-70.98,115.93C100.58,455.03,46.46,423.79,32.35,371.14z"/>
	</g>
</g>
<g>
	<path class="st0" d="M891.96,219.51c8.67,11.36,13.01,25.33,13.01,41.92c0,23.49-9.13,41.54-27.38,54.18
		c-18.24,12.63-44.86,18.95-79.82,18.95h-138.6V66.55h130.94c32.67,0,57.74,6.25,75.23,18.76c17.49,12.51,26.23,29.48,26.23,50.92
		c0,13.02-3.13,24.64-9.39,34.85c-6.25,10.21-14.99,18.25-26.22,24.12C871.28,200.05,883.28,208.15,891.96,219.51z M720.81,113.26
		v63.17h61.65c15.32,0,26.93-2.68,34.84-8.04c7.91-5.36,11.87-13.27,11.87-23.74c0-10.46-3.96-18.31-11.87-23.55
		c-7.91-5.23-19.52-7.85-34.84-7.85H720.81z M830.12,279.81c8.3-5.36,12.45-13.65,12.45-24.88c0-22.21-16.46-33.31-49.39-33.31
		h-72.37v66.24h72.37C809.51,287.86,821.82,285.17,830.12,279.81z"/>
	<path class="st0" d="M1029.06,116.32v70.83h124.06v49.78h-124.06v97.63h-62.02V66.55h202.54v49.77H1029.06z"/>
	<path class="st0" d="M1241.33,330.54c-19.78-5.74-35.67-13.2-47.68-22.4l21.07-46.71c11.48,8.42,25.14,15.19,40.96,20.29
		c15.83,5.11,31.65,7.65,47.48,7.65c17.61,0,30.63-2.61,39.05-7.85c8.43-5.23,12.64-12.19,12.64-20.87c0-6.38-2.48-11.68-7.46-15.89
		c-4.98-4.21-11.36-7.59-19.15-10.14c-7.79-2.55-18.32-5.36-31.59-8.42c-20.43-4.85-37.15-9.7-50.16-14.55
		c-13.01-4.84-24.19-12.63-33.5-23.35c-9.32-10.72-13.98-25.01-13.98-42.88c0-15.57,4.21-29.67,12.64-42.31
		c8.42-12.64,21.11-22.65,38.09-30.06c16.97-7.4,37.72-11.11,62.22-11.11c17.1,0,33.82,2.05,50.16,6.13
		c16.33,4.09,30.63,9.96,42.88,17.61l-19.15,47.09c-24.76-14.03-49.52-21.06-74.28-21.06c-17.35,0-30.18,2.81-38.48,8.42
		c-8.3,5.62-12.44,13.02-12.44,22.21s4.78,16.02,14.35,20.49c9.57,4.47,24.19,8.87,43.84,13.21c20.42,4.85,37.15,9.7,50.16,14.55
		c13.01,4.85,24.18,12.51,33.5,22.98c9.32,10.47,13.98,24.64,13.98,42.5c0,15.32-4.28,29.29-12.83,41.92
		c-8.56,12.63-21.39,22.66-38.48,30.06c-17.11,7.4-37.91,11.1-62.41,11.1C1281.59,339.16,1261.1,336.29,1241.33,330.54z"/>
	<path class="st0" d="M698.43,405.58c1.98,2.34,2.97,5.36,2.97,9.05c0,4.74-1.76,8.39-5.26,10.95c-3.49,2.56-8.67,3.84-15.53,3.84
		h-25.44v-55.33h23.87c6.15,0,10.95,1.24,14.34,3.71c3.4,2.48,5.1,5.98,5.1,10.51c0,3.06-0.76,5.65-2.25,7.79
		c-1.51,2.13-3.57,3.73-6.21,4.78C693.65,401.67,696.45,403.23,698.43,405.58z M661.01,378.91v20.07h17.63
		c4.47,0,7.92-0.86,10.35-2.57c2.42-1.71,3.63-4.2,3.63-7.47c0-3.26-1.21-5.75-3.63-7.47c-2.43-1.71-5.88-2.57-10.35-2.57H661.01z
		 M691.75,422.05c2.53-1.68,3.8-4.32,3.8-7.9c0-6.9-5.01-10.35-15.02-10.35h-19.52v20.79h19.52
		C685.48,424.59,689.22,423.74,691.75,422.05z"/>
	<path class="st0" d="M713.48,377.56c-0.79-0.79-1.19-1.74-1.19-2.85c0-1.05,0.4-1.97,1.19-2.76c0.79-0.79,1.76-1.19,2.92-1.19
		c1.15,0,2.13,0.38,2.92,1.15s1.19,1.67,1.19,2.73c0,1.16-0.4,2.13-1.19,2.92c-0.79,0.79-1.77,1.19-2.92,1.19
		C715.24,378.75,714.28,378.35,713.48,377.56z M713.56,387.84h5.62v41.57h-5.62V387.84z"/>
	<path class="st0" d="M750.24,408.54l-9.79,9.01v11.85h-5.62v-58.64h5.62v39.76l24.82-22.68h6.95l-17.78,16.99l19.44,24.58H767
		L750.24,408.54z"/>
	<path class="st0" d="M816.86,410.36h-34.78c0.32,4.32,1.98,7.81,4.98,10.47c3.01,2.66,6.8,3.99,11.39,3.99
		c2.58,0,4.96-0.46,7.11-1.38c2.17-0.92,4.03-2.28,5.62-4.07l3.15,3.64c-1.84,2.21-4.14,3.9-6.91,5.06
		c-2.77,1.16-5.8,1.74-9.12,1.74c-4.28,0-8.06-0.91-11.34-2.73c-3.3-1.82-5.87-4.34-7.72-7.55c-1.84-3.21-2.76-6.85-2.76-10.91
		c0-4.06,0.88-7.69,2.65-10.9c1.76-3.21,4.19-5.72,7.26-7.51c3.09-1.79,6.55-2.69,10.4-2.69c3.85,0,7.3,0.9,10.35,2.69
		c3.06,1.79,5.45,4.28,7.19,7.47c1.75,3.19,2.62,6.84,2.62,10.95L816.86,410.36z M786.7,396.17c-2.71,2.56-4.25,5.89-4.63,10h29.49
		c-0.37-4.11-1.91-7.45-4.63-10c-2.71-2.56-6.1-3.83-10.16-3.83C792.78,392.34,789.42,393.62,786.7,396.17z"/>
	<path class="st0" d="M856.14,379.14v21.73h28.61v5.06h-28.61v23.48h-5.85v-55.33h37.94v5.06H856.14z"/>
	<path class="st0" d="M898.27,377.56c-0.79-0.79-1.19-1.74-1.19-2.85c0-1.05,0.4-1.97,1.19-2.76c0.79-0.79,1.76-1.19,2.92-1.19
		c1.15,0,2.13,0.38,2.92,1.15s1.19,1.67,1.19,2.73c0,1.16-0.4,2.13-1.19,2.92c-0.79,0.79-1.77,1.19-2.92,1.19
		C900.02,378.75,899.06,378.35,898.27,377.56z M898.34,387.84h5.62v41.57h-5.62V387.84z"/>
	<path class="st0" d="M941.5,426.88c-1.06,0.95-2.36,1.67-3.91,2.17c-1.56,0.5-3.18,0.75-4.86,0.75c-3.9,0-6.9-1.06-9.01-3.16
		c-2.11-2.11-3.17-5.09-3.17-8.94v-25.13h-7.43v-4.74h7.43v-9.09h5.62v9.09h12.64v4.74h-12.64v24.82c0,2.48,0.62,4.36,1.86,5.65
		c1.23,1.29,3.01,1.94,5.33,1.94c1.16,0,2.29-0.19,3.36-0.55c1.08-0.37,2.01-0.9,2.8-1.58L941.5,426.88z"/>
	<path class="st0" d="M972.47,426.88c-1.06,0.95-2.36,1.67-3.91,2.17c-1.56,0.5-3.18,0.75-4.86,0.75c-3.9,0-6.9-1.06-9.01-3.16
		c-2.11-2.11-3.17-5.09-3.17-8.94v-25.13h-7.43v-4.74h7.43v-9.09h5.62v9.09h12.64v4.74h-12.64v24.82c0,2.48,0.62,4.36,1.86,5.65
		c1.23,1.29,3.01,1.94,5.33,1.94c1.16,0,2.29-0.19,3.36-0.55c1.08-0.37,2.01-0.9,2.8-1.58L972.47,426.88z"/>
	<path class="st0" d="M982.6,377.56c-0.79-0.79-1.19-1.74-1.19-2.85c0-1.05,0.4-1.97,1.19-2.76c0.79-0.79,1.76-1.19,2.92-1.19
		c1.15,0,2.13,0.38,2.92,1.15c0.79,0.76,1.19,1.67,1.19,2.73c0,1.16-0.4,2.13-1.19,2.92c-0.79,0.79-1.77,1.19-2.92,1.19
		C984.35,378.75,983.39,378.35,982.6,377.56z M982.67,387.84h5.62v41.57h-5.62V387.84z"/>
	<path class="st0" d="M1037.56,392.06c3.08,3.03,4.62,7.45,4.62,13.24v24.11h-5.61v-23.55c0-4.32-1.08-7.61-3.24-9.88
		c-2.17-2.26-5.24-3.4-9.24-3.4c-4.48,0-8.02,1.33-10.64,3.99c-2.6,2.66-3.9,6.34-3.9,11.02v21.82h-5.62v-41.57h5.37v7.67
		c1.53-2.53,3.65-4.49,6.36-5.89c2.71-1.39,5.86-2.09,9.44-2.09C1030.33,387.52,1034.47,389.03,1037.56,392.06z"/>
	<path class="st0" d="M1096.08,387.84v36.52c0,7.06-1.73,12.29-5.18,15.68c-3.45,3.4-8.65,5.1-15.61,5.1c-3.85,0-7.5-0.57-10.95-1.7
		c-3.45-1.13-6.26-2.7-8.42-4.7l2.85-4.27c2,1.79,4.44,3.19,7.31,4.19c2.87,1,5.89,1.5,9.05,1.5c5.28,0,9.14-1.23,11.62-3.68
		c2.48-2.45,3.71-6.25,3.71-11.42v-5.3c-1.74,2.64-4.01,4.64-6.84,6.01c-2.81,1.37-5.93,2.06-9.36,2.06c-3.9,0-7.44-0.85-10.63-2.57
		c-3.19-1.71-5.69-4.11-7.51-7.19c-1.82-3.08-2.73-6.57-2.73-10.47c0-3.9,0.9-7.37,2.73-10.43c1.81-3.06,4.31-5.42,7.46-7.11
		c3.17-1.69,6.73-2.53,10.67-2.53c3.53,0,6.73,0.71,9.56,2.14c2.85,1.42,5.14,3.47,6.88,6.16v-7.98H1096.08z M1082.96,420.91
		c2.43-1.29,4.31-3.09,5.65-5.41c1.35-2.32,2.02-4.95,2.02-7.91c0-2.95-0.67-5.57-2.02-7.86c-1.34-2.29-3.21-4.08-5.61-5.37
		c-2.4-1.29-5.12-1.93-8.18-1.93c-3.01,0-5.7,0.63-8.1,1.9c-2.41,1.26-4.28,3.06-5.62,5.37c-1.34,2.32-2.01,4.96-2.01,7.9
		c0,2.96,0.67,5.59,2.01,7.91s3.21,4.12,5.62,5.41c2.4,1.29,5.09,1.93,8.1,1.93C1077.83,422.85,1080.54,422.2,1082.96,420.91z"/>
	<path class="st0" d="M1137.14,427.91c-3.77-1.32-6.68-3.06-8.74-5.22l2.3-4.5c2,2,4.66,3.62,7.98,4.86
		c3.32,1.24,6.74,1.86,10.28,1.86c4.95,0,8.66-0.91,11.14-2.73c2.47-1.82,3.71-4.18,3.71-7.07c0-2.21-0.67-3.98-2.02-5.3
		c-1.34-1.31-2.99-2.33-4.93-3.04c-1.96-0.71-4.66-1.48-8.14-2.33c-4.17-1.06-7.48-2.07-9.96-3.04c-2.47-0.97-4.59-2.46-6.36-4.46
		c-1.77-2-2.65-4.71-2.65-8.14c0-2.79,0.74-5.33,2.22-7.62c1.47-2.3,3.74-4.13,6.79-5.5c3.06-1.37,6.85-2.06,11.39-2.06
		c3.15,0,6.25,0.43,9.29,1.3c3.02,0.87,5.65,2.07,7.86,3.6l-1.98,4.66c-2.32-1.53-4.79-2.67-7.43-3.43
		c-2.63-0.76-5.21-1.15-7.74-1.15c-4.86,0-8.5,0.93-10.95,2.81c-2.45,1.87-3.68,4.28-3.68,7.23c0,2.21,0.67,3.99,2.02,5.33
		c1.34,1.35,3.02,2.37,5.06,3.08c2.02,0.71,4.75,1.49,8.18,2.34c4.06,1,7.34,1.99,9.84,2.96c2.51,0.98,4.63,2.45,6.36,4.42
		c1.75,1.98,2.62,4.65,2.62,8.02c0,2.8-0.76,5.34-2.25,7.63c-1.51,2.29-3.81,4.11-6.92,5.46c-3.11,1.34-6.92,2.01-11.45,2.01
		C1144.85,429.88,1140.9,429.23,1137.14,427.91z"/>
	<path class="st0" d="M1215.26,387.84l-20.78,46.55c-1.68,3.9-3.64,6.67-5.85,8.3c-2.21,1.63-4.87,2.45-7.98,2.45
		c-2.01,0-3.88-0.31-5.62-0.95c-1.74-0.64-3.24-1.58-4.51-2.85l2.62-4.19c2.1,2.11,4.63,3.17,7.58,3.17c1.89,0,3.52-0.53,4.86-1.58
		s2.59-2.85,3.76-5.37l1.81-4.03l-18.57-41.49h5.85l15.65,35.33l15.65-35.33H1215.26z"/>
	<path class="st0" d="M1224.15,428.34c-3.08-0.97-5.5-2.2-7.23-3.68l2.53-4.42c1.74,1.37,3.92,2.49,6.56,3.36
		c2.64,0.87,5.37,1.3,8.22,1.3c3.79,0,6.59-0.59,8.42-1.77c1.81-1.19,2.73-2.86,2.73-5.02c0-1.53-0.51-2.73-1.51-3.59
		c-1-0.87-2.26-1.53-3.79-1.98c-1.53-0.45-3.56-0.88-6.09-1.3c-3.37-0.63-6.08-1.27-8.13-1.93c-2.06-0.66-3.81-1.78-5.26-3.36
		c-1.45-1.58-2.17-3.76-2.17-6.56c0-3.48,1.44-6.32,4.34-8.54c2.9-2.21,6.92-3.32,12.09-3.32c2.69,0,5.37,0.36,8.07,1.07
		c2.68,0.71,4.9,1.65,6.64,2.81l-2.45,4.51c-3.43-2.37-7.51-3.56-12.25-3.56c-3.58,0-6.28,0.63-8.1,1.9
		c-1.81,1.26-2.73,2.92-2.73,4.98c0,1.58,0.52,2.85,1.54,3.79c1.03,0.95,2.31,1.65,3.84,2.09c1.53,0.45,3.64,0.91,6.32,1.38
		c3.33,0.63,5.99,1.26,7.99,1.9c2,0.63,3.71,1.71,5.13,3.24c1.43,1.53,2.13,3.64,2.13,6.32c0,3.63-1.51,6.52-4.54,8.65
		c-3.03,2.14-7.23,3.2-12.61,3.2C1230.46,429.8,1227.23,429.31,1224.15,428.34z"/>
	<path class="st0" d="M1283.24,426.88c-1.06,0.95-2.36,1.67-3.91,2.17c-1.56,0.5-3.18,0.75-4.86,0.75c-3.9,0-6.9-1.06-9.01-3.16
		c-2.11-2.11-3.17-5.09-3.17-8.94v-25.13h-7.43v-4.74h7.43v-9.09h5.62v9.09h12.64v4.74h-12.64v24.82c0,2.48,0.62,4.36,1.86,5.65
		c1.23,1.29,3.01,1.94,5.33,1.94c1.16,0,2.29-0.19,3.36-0.55c1.08-0.37,2.01-0.9,2.8-1.58L1283.24,426.88z"/>
	<path class="st0" d="M1328.13,410.36h-34.78c0.32,4.32,1.98,7.81,4.98,10.47c3.01,2.66,6.8,3.99,11.39,3.99
		c2.58,0,4.96-0.46,7.11-1.38c2.17-0.92,4.03-2.28,5.62-4.07l3.15,3.64c-1.84,2.21-4.14,3.9-6.91,5.06
		c-2.77,1.16-5.8,1.74-9.12,1.74c-4.28,0-8.06-0.91-11.34-2.73c-3.3-1.82-5.87-4.34-7.72-7.55c-1.84-3.21-2.76-6.85-2.76-10.91
		c0-4.06,0.88-7.69,2.65-10.9c1.76-3.21,4.19-5.72,7.26-7.51c3.09-1.79,6.55-2.69,10.4-2.69s7.3,0.9,10.35,2.69
		c3.06,1.79,5.45,4.28,7.19,7.47c1.75,3.19,2.62,6.84,2.62,10.95L1328.13,410.36z M1297.98,396.17c-2.71,2.56-4.25,5.89-4.63,10
		h29.49c-0.37-4.11-1.91-7.45-4.63-10c-2.71-2.56-6.1-3.83-10.16-3.83C1304.05,392.34,1300.69,393.62,1297.98,396.17z"/>
	<path class="st0" d="M1403.8,392.02c2.97,3.01,4.46,7.43,4.46,13.28v24.11h-5.62v-23.55c0-4.32-1.03-7.61-3.12-9.88
		c-2.08-2.26-5.01-3.4-8.81-3.4c-4.32,0-7.72,1.33-10.19,3.99c-2.48,2.66-3.71,6.34-3.71,11.02v21.82h-5.62v-23.55
		c0-4.32-1.03-7.61-3.12-9.88c-2.08-2.26-5.04-3.4-8.89-3.4c-4.26,0-7.65,1.33-10.16,3.99c-2.51,2.66-3.75,6.34-3.75,11.02v21.82
		h-5.62v-41.57h5.37v7.59c1.47-2.53,3.53-4.48,6.17-5.85c2.64-1.37,5.66-2.06,9.09-2.06c3.47,0,6.5,0.74,9.05,2.21
		c2.56,1.48,4.47,3.67,5.74,6.56c1.53-2.74,3.73-4.89,6.59-6.44c2.87-1.56,6.15-2.34,9.84-2.34
		C1396.73,387.52,1400.83,389.02,1403.8,392.02z"/>
</g>
</svg>
